<svg xmlns="http://www.w3.org/2000/svg" viewBox="0 0 80 56"><path d="M4 25.4l14-7 54 27-14 7z" opacity=".3" fill="#8526fe" class="color000000 svgShape"></path><path fill="#34312d" d="M70.9 29.8l.5.3c.8.5 1.5 1.3 1.9 2.2.3.7.7 1.4.7 2.1v1.1c0 .4-.3.8-.6 1-.3.2-.6 0-.6-.3v-1.7c0-.2.1-.4.1-.5.2-.3.4-.7.2-1.1-.4-1.1-1.2-2.1-2.1-2.6l-.3-.2c0-.1.1-.3.2-.3z" class="color2d3134 svgShape"></path><path d="M70.9 29.8l.5.3c.8.5 1.5 1.3 1.9 2.2.3.7.7 1.4.7 2.1v1.1c0 .4-.3.8-.6 1-.3.2-.6 0-.6-.3v-1.7c0-.2.1-.4.1-.5.2-.3.4-.7.2-1.1-.4-1.1-1.2-2.1-2.1-2.6l-.3-.2c0-.1.1-.3.2-.3z" opacity=".39" fill="#8526fe" class="color000000 svgShape"></path><path fill="#34312d" d="M15.6 28.8l2.6-1.3v-1.4h-2.6z" class="color2d3134 svgShape"></path><path d="M15.6 28.8l2.6-1.3v-1.4h-2.6z" opacity=".39" fill="#8526fe" class="color000000 svgShape"></path><path fill="#34312d" d="M43.6 42.8l2.6-1.3v-1.4h-2.6z" class="color2d3134 svgShape"></path><path d="M43.6 42.8l2.6-1.3v-1.4h-2.6z" opacity=".39" fill="#8526fe" class="color000000 svgShape"></path><path fill="#34312d" d="M20.2 26.4c-.7-.4-1.4-.4-1.9-.2l-1.4.7c-.5.2-.9.8-.9 1.6 0 1.5 1.3 3.4 2.8 4.2.8.4 1.5.4 2 .2 0 0 1.4-.7 1.5-.8.5-.3.7-.8.7-1.5 0-1.6-1.3-3.5-2.8-4.2z" class="color2d3134 svgShape"></path><path d="M20.8 32.8c.2-.1 1.4-.7 1.5-.7.5-.3.7-.8.7-1.5 0-.6-.2-1.3-.5-1.9l-1.4.7c.3.6.5 1.3.5 1.9 0 .7-.3 1.3-.8 1.5z" opacity=".39" fill="#8526fe" class="color000000 svgShape"></path><path fill="#aea9b0" d="M20.9 30.9c0 1.2-.9 1.6-2.1 1-1.2-.6-2.1-2-2.1-3.2 0-1.2.9-1.6 2.1-1 1.2.6 2.1 2 2.1 3.2z" class="colora9abb0 svgShape"></path><path fill="#838085" d="M19 31.9c-1.2-.6-2.1-2-2.1-3.2 0-.6.2-1 .6-1.2-.5.1-.8.6-.8 1.2 0 1.2.9 2.6 2.1 3.2.6.3 1.1.3 1.5.1-.4.2-.8.1-1.3-.1z" class="color808285 svgShape"></path><path fill="#34312d" d="M19.9 30.2c0 .5-.4.7-.9.4s-.9-.8-.9-1.3.4-.7.9-.4.9.8.9 1.3z" class="color2d3134 svgShape"></path><path d="M19.9 30.2c0 .5-.4.7-.9.4s-.9-.8-.9-1.3.4-.7.9-.4.9.8.9 1.3z" opacity=".39" fill="#8526fe" class="color000000 svgShape"></path><path fill="#34312d" d="M19.7 30.3c0 .5-.4.7-.9.4-.5-.2-.9-.8-.9-1.3s.4-.7.9-.4c.5.2.9.8.9 1.3z" class="color2d3134 svgShape"></path><path d="M21.6 31.3c0 1.5-1.3 2.2-2.8 1.4-1.5-.8-2.8-2.7-2.8-4.2s1.3-2.2 2.8-1.4c1.5.7 2.8 2.6 2.8 4.2z" opacity=".06" fill="#8526fe" class="color000000 svgShape"></path><path fill="#34312d" d="M48.2 40.3c-.7-.4-1.4-.4-1.9-.2l-1.4.7c-.5.2-.9.8-.9 1.6 0 1.5 1.3 3.4 2.8 4.2.8.4 1.5.4 2 .2 0 0 1.4-.7 1.5-.8.5-.3.7-.8.7-1.5 0-1.5-1.3-3.4-2.8-4.2z" class="color2d3134 svgShape"></path><path d="M48.8 46.8c.2-.1 1.4-.7 1.5-.7.5-.3.7-.8.7-1.5 0-.6-.2-1.3-.5-1.9l-1.4.7c.3.6.5 1.3.5 1.9 0 .7-.3 1.2-.8 1.5z" opacity=".39" fill="#8526fe" class="color000000 svgShape"></path><path fill="#aea9b0" d="M48.9 44.9c0 1.2-.9 1.6-2.1 1s-2.1-2-2.1-3.2.9-1.6 2.1-1 2.1 2 2.1 3.2z" class="colora9abb0 svgShape"></path><path fill="#838085" d="M47 45.8c-1.2-.6-2.1-2-2.1-3.2 0-.6.2-1 .6-1.2-.5.1-.8.6-.8 1.2 0 1.2.9 2.6 2.1 3.2.6.3 1.1.3 1.5.1-.4.2-.8.2-1.3-.1z" class="color808285 svgShape"></path><path fill="#34312d" d="M47.8 44.2c0 .5-.4.7-.9.4-.5-.2-.9-.8-.9-1.3s.4-.7.9-.4c.6.2.9.8.9 1.3z" class="color2d3134 svgShape"></path><path d="M47.8 44.2c0 .5-.4.7-.9.4-.5-.2-.9-.8-.9-1.3s.4-.7.9-.4c.6.2.9.8.9 1.3z" opacity=".39" fill="#8526fe" class="color000000 svgShape"></path><path fill="#34312d" d="M47.7 44.3c0 .5-.4.7-.9.4-.5-.2-.9-.8-.9-1.3s.4-.7.9-.4c.5.2.9.8.9 1.3z" class="color2d3134 svgShape"></path><path d="M49.6 45.2c0 1.5-1.3 2.2-2.8 1.4S44 44 44 42.4s1.3-2.2 2.8-1.4 2.8 2.7 2.8 4.2z" opacity=".06" fill="#8526fe" class="color000000 svgShape"></path><path fill="#cc871f" d="M66.1 25.1L16 0 4 6v15l2.6 1.3 9.5 4.7c.3-.4.9-.7 1.5-.7.5 0 .9.1 1.4.4 1.2.6 2.3 1.9 2.8 3.2L24 31v2l8 4v-2l12 6c.3-.5.9-.7 1.5-.7.5 0 .9.1 1.4.4 1.3.6 2.3 1.9 2.8 3.2L60 49l12-6v-8.4c0-4-2.3-7.7-5.9-9.5z" class="colorcc291f svgShape"></path><path fill="#262626" d="M60 51l12-6v-2l-12 6z" class="color262626 svgShape"></path><path d="M4.8 17.1V9.7l18.4 9.2v7.4z" opacity=".3" fill="#8526fe" class="color000000 svgShape"></path><path fill="#656565" d="M23 19L5 10v7l18 9z" class="color656565 svgShape"></path><path d="M23 19L5 10l18 12.9z" opacity=".2" fill="#8526fe" class="color000000 svgShape"></path><path d="M5.2 16.9v-6.8L5 10v7l18 9v-.2zM24 18v15l4 2V20l-4-2zm3.8 16.7l-3.6-1.8V18.3l3.6 1.8v14.6zM28 20v15l4 2V22l-4-2zm3.8 16.7l-3.6-1.8V20.3l3.6 1.8v14.6zM57.8 42.8v-6.5l.4-.1c.7 1.4 1 2.9 1 4.4v2.9l-1.4-.7z" opacity=".3" fill="#8526fe" class="color000000 svgShape"></path><path fill="#656565" d="M58 36.3v6.4l1 .5v-2.6c0-1.5-.4-3-1-4.3z" class="color656565 svgShape"></path><path d="M53 32.5v13l4 2v-13l-4-2zm3.8 14.7l-3.6-1.8V32.8l3.6 1.8v12.6zM28.8 28.6v-6.4l2.4 1.2v6.4z" opacity=".3" fill="#8526fe" class="color000000 svgShape"></path><path fill="#656565" d="M29 22.5l2 1v6l-2-1z" class="color656565 svgShape"></path><path d="M53.8 41.1v-6.5l2.4 1.2v6.5z" opacity=".3" fill="#8526fe" class="color000000 svgShape"></path><path fill="#656565" d="M54 35l2 1v6l-2-1z" class="color656565 svgShape"></path><path d="M54.2 40.9v-5.8L54 35v6l2 1v-.2zM24.8 26.6v-6.4l2.4 1.2v6.4z" opacity=".3" fill="#8526fe" class="color000000 svgShape"></path><path fill="#656565" d="M25 20.5l2 1v6l-2-1z" class="color656565 svgShape"></path><path d="M29.2 28.4v-5.8l-.2-.1v6l2 1v-.2zM25.2 26.4v-5.8l-.2-.1v6l2 1v-.2zM32.8 31.1v-7.4l19.4 9.7v7.4z" opacity=".3" fill="#8526fe" class="color000000 svgShape"></path><path fill="#656565" d="M52 33.5L33 24v7l19 9.5z" class="color656565 svgShape"></path><path d="M52 33.5L33 24l19 12.9z" opacity=".2" fill="#8526fe" class="color000000 svgShape"></path><path d="M33.2 30.9v-6.8L33 24v7l19 9.5v-.2z" opacity=".3" fill="#8526fe" class="color000000 svgShape"></path><path fill="#ad59d4" d="M62 47l-2 1v-1l2-1z" class="color999999 svgShape"></path><path fill="#d8a353" d="M59 47.5l1 .5v-1l-1-.5z" class="colorff9900 svgShape"></path><path fill="#ad59d4" d="M72 42l-2 1v-1l2-1zM64 47.2v1l5-2.5v-1z" class="color999999 svgShape"></path><path d="M60.8 40.6c0-2.7-.9-5.3-2.6-7.3l-.2-.2 10.5-5.3.1.1c1.7 1.8 2.6 4.2 2.6 6.7v4l-10.4 5.2v-3.2z" opacity=".3" fill="#8526fe" class="color000000 svgShape"></path><path fill="#656565" d="M61 43.5l10-5v-3.9c0-2.4-.9-4.8-2.5-6.5l-10.1 5.1c1.7 2.1 2.7 4.7 2.7 7.5l-.1 2.8z" class="color656565 svgShape"></path><path fill="#5fe4d4" d="M56 22.8l-6 3-10-5 6-3z" opacity=".1" class="colorffffff svgShape"></path><path d="M50 26v-.2l-10-5v.2z" opacity=".06" fill="#8526fe" class="color000000 svgShape"></path><path d="M50 26v-.2l6-3v.2z" opacity=".39" fill="#8526fe" class="color000000 svgShape"></path><path fill="#5fe4d4" d="M28 8.8l-6 3-10-5 6-3z" opacity=".1" class="colorffffff svgShape"></path><path d="M22 12v-.2l-10-5V7z" opacity=".06" fill="#8526fe" class="color000000 svgShape"></path><path d="M22 12v-.2l6-3V9z" opacity=".39" fill="#8526fe" class="color000000 svgShape"></path><path d="M60 46.2l12-6V40l-12 6z" opacity=".3" fill="#8526fe" class="color000000 svgShape"></path><path d="M63 45.7l6-3v-.2l-6 3zM63 46.1l6-3v-.2l-6 3zM63 46.5l6-3v-.2l-6 3zM63 46.9l6-3v-.2l-6 3z" opacity=".6" fill="#8526fe" class="color000000 svgShape"></path><path fill="#5fe4d4" d="M60 46.4l12-6v-.2l-12 6z" opacity=".15" class="colorffffff svgShape"></path><path d="M60 46.2l-3-1.5v-.2l3 1.5z" opacity=".3" fill="#8526fe" class="color000000 svgShape"></path><path fill="#5fe4d4" d="M60 46.4l-3-1.5v-.2l3 1.5z" opacity=".15" class="colorffffff svgShape"></path><path d="M53 42.7L32 32.2V32l21 10.5z" opacity=".3" fill="#8526fe" class="color000000 svgShape"></path><path fill="#5fe4d4" d="M53 42.9L32 32.4v-.2l21 10.5z" opacity=".15" class="colorffffff svgShape"></path><path d="M24 28.2l-20-10V18l20 10z" opacity=".3" fill="#8526fe" class="color000000 svgShape"></path><path fill="#5fe4d4" d="M24 28.4l-20-10v-.2l20 10z" opacity=".15" class="colorffffff svgShape"></path><g fill="#262626" class="color262626 svgShape"><path d="M15.6 28.5c0-.6.2-1.1.5-1.4L4 21v2l11.6 5.8v-.3zM21.7 29.9c.2.5.3.9.3 1.4 0 .2 0 .5-.1.7l2.1 1v-2l-2.3-1.1z" fill="#8526fe" class="color000000 svgShape"></path></g><g fill="#262626" class="color262626 svgShape"><path d="M43.6 42.4c0-.6.2-1.1.4-1.4l-12-6v2l11.6 5.8v-.4zM49.8 43.9c.2.5.2.9.2 1.4 0 .3 0 .5-.1.7L60 51v-2l-10.2-5.1z" fill="#8526fe" class="color000000 svgShape"></path></g><path d="M60.8 43.8v-1l10.4-5.2v1zM57.8 42.8v-1l1.4.7v1z" opacity=".5" fill="#8526fe" class="color000000 svgShape"></path><path fill="#34312d" d="M66.3 37.8c-.1-.1-.2-.1-.3 0l-3.8 4.3c-.1.1-.1.2 0 .3s.2.1.3 0l1-1.2v1l.3-.2v-1.1l2.5-2.9c.1 0 .1-.1 0-.2zM69.9 35.8c-.1-.1-.2-.1-.3 0l-3.8 4.3c-.1.1-.1.2 0 .3.1.1.2.1.3 0l.9-1v1.1l.3-.1V39l2.6-3c.1 0 .1-.1 0-.2z" class="color2d3134 svgShape"></path><path d="M65.4 29.4c.5 1.6.8 3.2.8 4.9 0 2.9-.8 5.6-2.1 7.9l1.8-.9s3.6-3.4 3.6-8.3c0-1.8-.4-3.6-1.1-5.2l-3 1.6zM31 29.4V26l-2-2.2v2.5zM27 24.8v-2.2l-2-2.2v1.3z" opacity=".2" fill="#8526fe" class="color000000 svgShape"></path><ellipse cx="61.3" cy="46.8" opacity=".2" rx=".5" ry=".3" transform="scale(-1) rotate(-50.856 -98.527 128.895)" fill="#8526fe" class="color000000 svgShape"></ellipse><ellipse cx="60.6" cy="47.1" opacity=".2" rx=".5" ry=".3" transform="scale(-1) rotate(-50.856 -99.158 127.529)" fill="#8526fe" class="color000000 svgShape"></ellipse><ellipse cx="71.4" cy="41.8" opacity=".2" rx=".5" ry=".3" transform="scale(-1) rotate(-50.856 -88.011 150.138)" fill="#8526fe" class="color000000 svgShape"></ellipse><ellipse cx="70.7" cy="42.1" opacity=".2" rx=".5" ry=".3" transform="scale(-1) rotate(-50.856 -88.642 148.772)" fill="#8526fe" class="color000000 svgShape"></ellipse><path fill="#5fe4d4" d="M62 47l-2 1v-1zM72 42l-2 1 2-2z" opacity=".2" class="colorffffff svgShape"></path><path fill="#34312d" d="M59.8 35.6l.5.2c.8.5 1.5 1.3 1.9 2.2.3.7.7 1.4.7 2.1v1.1c0 .4-.3.8-.6 1-.3.2-.6 0-.6-.3v-1.7c0-.2.1-.4.1-.5.2-.3.4-.7.2-1.1-.4-1.1-1.2-2.1-2.1-2.6l-.3-.2c-.1 0 0-.2.2-.2z" class="color2d3134 svgShape"></path><path d="M72 34.6c0-3-1.2-5.8-3.3-7.8l-12 6c2.1 2 3.3 4.8 3.3 7.8V51l12-6V34.6z" opacity=".39" fill="#8526fe" class="color000000 svgShape"></path><path d="M54.1 31L4 6v17l11.6 5.8v-.3c0-.6.2-1.1.5-1.4.3-.4.9-.7 1.5-.7.5 0 .9.1 1.4.4 1.2.6 2.3 1.9 2.8 3.2.2.5.3.9.3 1.4 0 .2 0 .5-.1.7l21.7 10.8v-.4c0-.6.2-1.1.4-1.4.3-.5.9-.7 1.5-.7.5 0 .9.1 1.4.4 1.3.6 2.3 1.9 2.8 3.2.2.5.2.9.2 1.4 0 .3 0 .5-.1.7L60 51V40.6c0-4-2.3-7.7-5.9-9.6z" opacity=".06" fill="#8526fe" class="color000000 svgShape"></path></svg>