<svg xmlns="http://www.w3.org/2000/svg" viewBox="0 0 47.5 47.5"><defs><clipPath id="a"><path d="M0 38h38V0H0v38Z"/></clipPath></defs><path fill="#6d6e71" d="M21.25 46.25h-2.5V10h2.5v36.25z"/><path fill="#6d6e71" d="M23.75 27.5H20V25h3.75v2.5zm0-7.5H20v-2.5h3.75V20z"/><g clip-path="url(#a)" transform="matrix(1.25 0 0 -1.25 0 47.5)"><path fill="#bcbec0" d="M30 13a1 1 0 0 0-1-1h-9a1 1 0 0 0-1 1v14a1 1 0 0 0 1 1h9a1 1 0 0 0 1-1V13Z"/><path fill="#be1931" d="M30 24v3a1 1 0 0 1-1 1h-9a1 1 0 0 1-1-1v-3h11z"/><path fill="#6d6e71" d="M22 3H10L9 2V1h14v1l-1 1zM20 5h-8l-1-1V3h10v1l-1 1z"/><path fill="#be1931" d="M12 33a4 4 0 1 0 8 0 4 4 0 0 0-8 0"/><path fill="#808285" d="M24 21h-3v3h3v-3z"/><path fill="#f4900c" d="M24 17h-3v3h3v-3zm0-4h-3v3h3v-3z"/><path fill="#808285" d="M28 21h-3v3h3v-3zm0-4h-3v3h3v-3z"/><path fill="#f4900c" d="M28 13h-3v3h3v-3z"/><path fill="#dd2e44" d="M18 31h-4v4h4v-4zm10-6h-7v2h7v-2z"/></g></svg>